<?xml version="1.0" encoding="UTF-8"?>
<svg xmlns="http://www.w3.org/2000/svg" xmlns:xlink="http://www.w3.org/1999/xlink" width="360px" height="240px" viewBox="0 0 360 240" version="1.1">
  <title>Image/default/autofun/transparent</title>
  <g id="----7.5-加载-/-Loading" stroke="none" stroke-width="1" fill="none" fill-rule="evenodd">
    <g id="加载-/-Loading" transform="translate(-832.000000, -914.000000)">
      <g id="Image/default/autofun/transparent" transform="translate(832.000000, 914.000000)">
        <rect id="矩形" x="0" y="0" width="360" height="240"></rect>
        <g id="编组" transform="translate(36.000000, 102.750000)" opacity="0.05">
          <g id="编组">
            <g id="wapcar_logo">
              <ellipse id="椭圆形" cx="16.1042435" cy="26.4405738" rx="4.90129151" ry="4.94877049"></ellipse>
              <ellipse id="椭圆形" cx="58.3953875" cy="15.1290984" rx="9.94261993" ry="10.0389344"></ellipse>
              <path d="M15.9657882,18.4167125 C20.2998697,18.4167125 23.813322,22.0169677 23.813322,26.45829 C23.813322,30.8994797 20.2998697,34.5 15.9657882,34.5 C11.6317067,34.5 8.11812505,30.8996123 8.11812505,26.45829 C8.11812505,22.0171003 11.6317067,18.4167125 15.9657882,18.4167125 Z M15.9560276,21.816721 C13.4824539,21.816721 11.4772261,23.8463685 11.4772261,26.3500656 C11.4772261,28.8537627 13.4824539,30.8834103 15.9560276,30.8834103 C18.4296013,30.8834103 20.434829,28.8537627 20.434829,26.3500656 C20.434829,23.8463685 18.4296013,21.816721 15.9560276,21.816721 Z M51.253351,0.00481500369 L51.2026684,0.0281206955 C48.9391526,1.0907269 46.9480153,2.6338815 45.3620016,4.52542542 C40.0744695,4.84127449 32.0873961,7.67141418 27.7603009,11.2074245 L41.9276405,11.2075232 C41.583856,12.5524906 41.4011387,13.9614999 41.4011387,15.4129967 C41.4011387,21.6323928 44.7557629,27.0717337 49.7618501,30.0353775 L26.507193,30.024621 L26.507193,26.4531165 L26.507193,26.4531165 C26.507193,20.0739527 21.3321311,15.5133289 15.9757658,15.5133289 C10.6195298,15.5133289 5.15007878,20.0739527 5.15007878,26.4639993 L5.15007878,30.0278747 L5.15007878,30.0278747 C3.31048435,30.0096374 2.91186972,30.0582114 1.73656861,30.0278747 C0.561267513,29.9975381 0.561267513,29.0968717 0.561267513,28.4497964 L0.560869927,27.7472058 C0.562312859,27.4740038 0.565482457,27.2861678 0.56628641,26.8836828 L0.566333303,26.5003941 C0.565901965,26.2048224 0.564434741,25.8210444 0.561267513,25.3003724 C0.769847911,21.7101807 2.23243879,11.5786808 18.0623074,10.9585884 C18.5940387,10.9439549 19.5047915,10.932846 20.7945659,10.9252616 C26.302911,5.3693936 38.1812773,-0.186741217 51.253351,0.00481500369 Z" id="Fill-1" fill="#FFFFFF"></path>
              <path d="M58.0507176,1.41393443 C65.3625675,1.41393443 71.2898958,7.55245423 71.2898958,15.1245156 C71.2898958,18.0646746 70.3958235,20.7885288 68.8743415,23.0210342 L74.9508841,29.329457 C75.8429402,30.2535547 75.8429402,31.7516815 74.9508841,32.6757792 C74.0584247,33.5998769 72.6115383,33.5998769 71.7194821,32.6757792 L65.6370257,26.3612319 C63.4885372,27.9196289 60.872986,28.8348183 58.0507176,28.8348183 C50.7392708,28.8348183 44.8118081,22.6964377 44.8118081,15.1245156 C44.8118081,7.55245423 50.7392708,1.41393443 58.0507176,1.41393443 Z M58.2553506,5.93852459 C53.3055749,5.93852459 49.2929889,9.98998062 49.2929889,14.9877049 C49.2929889,19.9854292 53.3055749,24.0368852 58.2553506,24.0368852 C63.2051262,24.0368852 67.2177122,19.9854292 67.2177122,14.9877049 C67.2177122,9.98998062 63.2051262,5.93852459 58.2553506,5.93852459 Z" id="形状结合" fill="#FFFFFF"></path>
            </g>
            <path d="M87.2415728,30.6559319 L91.145092,25.7579798 L103.887248,25.7579798 L103.688609,30.6559319 L113.664679,30.6559319 L113.479444,0 L103.744682,0 L77.625,30.6559319 L87.2415728,30.6559319 Z M104.178294,19.1107592 L96.5036631,19.1107592 L104.548995,9.09619661 L104.178294,19.1107592 Z M123.832857,31.0495173 C127.11276,31.0495173 130.272294,29.6501024 133.022663,27.113663 L131.50477,30.6559319 L140.582096,30.6559319 L150.888456,6.86587917 L141.724609,6.86587917 L136.663532,18.6297104 C135.499124,21.3410767 133.24974,23.2215404 130.887353,23.2652721 C128.904268,23.2652721 128.23118,21.7783938 129.219856,19.4606129 L134.602214,6.86587917 L125.438367,6.86587917 L119.047654,21.9533207 C116.701154,27.5072484 118.710815,31.0495173 123.832857,31.0495173 Z M155.823149,31.0495173 C158.294309,31.0495173 161.150479,30.481005 163.282398,29.5189073 L164.342385,23.440199 C163.0874,23.8337844 161.961367,24.1399064 161.240496,24.1399064 C159.978974,24.1399064 159.494351,23.3964672 160.166449,21.8658572 L163.742417,13.7317583 L169.804815,13.7317583 L172.302752,8.09036718 L166.226725,8.09036718 L169.139083,1.48687829 L160.001084,1.48687829 L157.112684,8.09036718 L153.711923,8.09036718 L151.255688,13.7317583 L154.648821,13.7317583 L150.511897,23.2215404 C148.361477,28.1632241 150.592181,31.093249 155.823149,31.0495173 Z M177.833093,30.9620539 C186.055605,30.9620539 193.599293,26.1078335 196.929153,18.7609055 C200.284862,11.3702458 197.073138,6.55975717 188.770226,6.55975717 C180.467315,6.55975717 172.887838,11.3702458 169.612687,18.7609055 C166.362799,26.1078335 169.610582,30.9620539 177.833093,30.9620539 Z M180.884209,24.1399064 C178.180946,24.1399064 177.359918,22.0407841 178.784483,18.8483689 C180.190626,15.6996855 182.912756,13.5568315 185.627452,13.5568315 C188.296902,13.5568315 189.09627,15.6996855 187.678956,18.8483689 C186.243071,22.0407841 183.542418,24.1399064 180.884209,24.1399064 Z M204.393,30.6559319 L209.220524,20.1165887 L223.300079,20.1165887 L226.551243,13.1195143 L212.432367,13.1195143 L215.247214,6.99707432 L230.489253,6.99707432 L233.753791,0 L209.007481,0 L195.04605,30.6559319 L204.393,30.6559319 Z M230.721768,31.0495173 C234.001672,31.0495173 237.221018,29.6501024 240.079837,27.113663 L238.410502,30.6559319 L247.487828,30.6559319 L258.813168,6.86587917 L249.649321,6.86587917 L244.083817,18.6297104 C242.803301,21.3410767 240.473425,23.2215404 238.109167,23.2652721 C236.126082,23.2652721 235.516636,21.7783938 236.604554,19.4606129 L242.526925,6.86587917 L233.363078,6.86587917 L226.325622,21.9533207 C223.741496,27.5072484 225.599727,31.0495173 230.721768,31.0495173 Z M262.047499,30.6559319 L267.70814,18.8921007 C269.015097,16.1807344 271.459907,14.3002706 273.968807,14.2565389 C276.094726,14.2565389 276.775299,15.7434172 275.629711,18.1049298 L269.552021,30.6559319 L278.629347,30.6559319 L285.992336,15.5684904 C288.688072,10.0582943 286.793171,6.51602546 281.530032,6.51602546 C278.081768,6.51602546 274.727635,7.91544032 271.73714,10.5393432 L273.511615,6.86587917 L264.347768,6.86587917 L252.970173,30.6559319 L262.047499,30.6559319 Z" id="AutoFun" fill="#FFFFFF"></path>
          </g>
        </g>
        <rect id="矩形" x="0" y="0" width="360" height="240"></rect>
      </g>
    </g>
  </g>
</svg>
